<svg width="75" height="68" viewBox="0 0 75 68" fill="none" xmlns="http://www.w3.org/2000/svg">
<g clip-path="url(#clip0_527_422)">
<path d="M35.6241 57.7436C38.739 57.7436 42.2795 57.1477 45.3326 56.566C45.535 56.5295 45.7432 56.5451 45.9379 56.6111C46.1326 56.6771 46.3072 56.7915 46.4454 56.9435C51.32 62.433 57.0481 65.9209 59.823 67.4239V52.983C59.8231 52.7904 59.8701 52.6007 59.96 52.4303C60.0499 52.2599 60.18 52.1138 60.339 52.0048C66.6116 47.6953 74.0898 40.4583 74.0898 30.4313C74.0898 13.7847 57.7163 0.74707 36.813 0.74707C16.0404 0.74707 0.377808 13.5069 0.377808 30.4266C0.377808 46.767 14.5424 57.7436 35.6241 57.7436Z" fill="white"/>
<path d="M45.2391 56.0748L45.2441 56.0739C45.5297 56.0224 45.8237 56.0444 46.0985 56.1376C46.3734 56.2308 46.62 56.3924 46.8153 56.607L46.8153 56.607L46.8193 56.6115C51.2418 61.592 56.3813 64.9114 59.323 66.5755V52.983V52.9828C59.3231 52.709 59.39 52.4393 59.5177 52.197C59.6455 51.9548 59.8304 51.7473 60.0563 51.5924C66.2996 47.303 73.5898 40.1965 73.5898 30.4313C73.5898 14.1611 57.5524 1.24707 36.813 1.24707C16.2159 1.24707 0.877808 13.874 0.877808 30.4266C0.877808 38.4374 4.34364 45.1226 10.4016 49.8175C16.4699 54.5205 25.1651 57.2436 35.6241 57.2436C38.6869 57.2436 42.1859 56.6565 45.2391 56.0748Z" stroke="#111111"/>
<path d="M27.64 24.4448C27.008 24.4448 26.424 24.3408 25.888 24.1328C25.352 23.9168 24.888 23.6168 24.496 23.2328C24.104 22.8488 23.796 22.3968 23.572 21.8768C23.356 21.3568 23.248 20.7888 23.248 20.1728C23.248 19.5568 23.356 18.9888 23.572 18.4688C23.796 17.9488 24.104 17.4968 24.496 17.1128C24.896 16.7288 25.364 16.4328 25.9 16.2248C26.436 16.0088 27.02 15.9008 27.652 15.9008C28.26 15.9008 28.832 16.0048 29.368 16.2128C29.904 16.4128 30.356 16.7168 30.724 17.1248L30.16 17.6888C29.816 17.3368 29.436 17.0848 29.02 16.9328C28.604 16.7728 28.156 16.6928 27.676 16.6928C27.172 16.6928 26.704 16.7808 26.272 16.9568C25.84 17.1248 25.464 17.3688 25.144 17.6888C24.824 18.0008 24.572 18.3688 24.388 18.7928C24.212 19.2088 24.124 19.6688 24.124 20.1728C24.124 20.6768 24.212 21.1408 24.388 21.5648C24.572 21.9808 24.824 22.3488 25.144 22.6688C25.464 22.9808 25.84 23.2248 26.272 23.4008C26.704 23.5688 27.172 23.6528 27.676 23.6528C28.156 23.6528 28.604 23.5728 29.02 23.4128C29.436 23.2528 29.816 22.9968 30.16 22.6448L30.724 23.2088C30.356 23.6168 29.904 23.9248 29.368 24.1328C28.832 24.3408 28.256 24.4448 27.64 24.4448ZM35.653 18.0128C36.165 18.0128 36.613 18.1128 36.997 18.3128C37.389 18.5048 37.693 18.8008 37.909 19.2008C38.133 19.6008 38.245 20.1048 38.245 20.7128V24.3728H37.393V20.7968C37.393 20.1328 37.225 19.6328 36.889 19.2968C36.561 18.9528 36.097 18.7808 35.497 18.7808C35.049 18.7808 34.657 18.8728 34.321 19.0568C33.993 19.2328 33.737 19.4928 33.553 19.8368C33.377 20.1728 33.289 20.5808 33.289 21.0608V24.3728H32.437V15.4688H33.289V19.8008L33.121 19.4768C33.321 19.0208 33.641 18.6648 34.081 18.4088C34.521 18.1448 35.045 18.0128 35.653 18.0128ZM44.4944 24.3728V22.9808L44.4584 22.7528V20.4248C44.4584 19.8888 44.3064 19.4768 44.0024 19.1888C43.7064 18.9008 43.2624 18.7568 42.6704 18.7568C42.2624 18.7568 41.8744 18.8248 41.5064 18.9608C41.1384 19.0968 40.8264 19.2768 40.5704 19.5008L40.1864 18.8648C40.5064 18.5928 40.8904 18.3848 41.3384 18.2408C41.7864 18.0888 42.2584 18.0128 42.7544 18.0128C43.5704 18.0128 44.1984 18.2168 44.6384 18.6248C45.0864 19.0248 45.3104 19.6368 45.3104 20.4608V24.3728H44.4944ZM42.3224 24.4328C41.8504 24.4328 41.4384 24.3568 41.0864 24.2048C40.7424 24.0448 40.4784 23.8288 40.2944 23.5568C40.1104 23.2768 40.0184 22.9568 40.0184 22.5968C40.0184 22.2688 40.0944 21.9728 40.2464 21.7088C40.4064 21.4368 40.6624 21.2208 41.0144 21.0608C41.3744 20.8928 41.8544 20.8088 42.4544 20.8088H44.6264V21.4448H42.4784C41.8704 21.4448 41.4464 21.5528 41.2064 21.7688C40.9744 21.9848 40.8584 22.2528 40.8584 22.5728C40.8584 22.9328 40.9984 23.2208 41.2784 23.4368C41.5584 23.6528 41.9504 23.7608 42.4544 23.7608C42.9344 23.7608 43.3464 23.6528 43.6904 23.4368C44.0424 23.2128 44.2984 22.8928 44.4584 22.4768L44.6504 23.0648C44.4904 23.4808 44.2104 23.8128 43.8104 24.0608C43.4184 24.3088 42.9224 24.4328 42.3224 24.4328ZM49.6165 24.4328C49.0245 24.4328 48.5685 24.2728 48.2485 23.9528C47.9285 23.6328 47.7685 23.1808 47.7685 22.5968V16.6808H48.6205V22.5488C48.6205 22.9168 48.7125 23.2008 48.8965 23.4008C49.0885 23.6008 49.3605 23.7008 49.7125 23.7008C50.0885 23.7008 50.4005 23.5928 50.6485 23.3768L50.9485 23.9888C50.7805 24.1408 50.5765 24.2528 50.3365 24.3248C50.1045 24.3968 49.8645 24.4328 49.6165 24.4328ZM46.6405 18.7808V18.0728H50.5405V18.7808H46.6405ZM17.5316 42.3728L15.1556 36.0728H15.9716L18.1316 41.9168H17.7596L19.9796 36.0728H20.7116L22.9076 41.9168H22.5356L24.7316 36.0728H25.5116L23.1236 42.3728H22.3196L20.2076 36.8768H20.4596L18.3356 42.3728H17.5316ZM26.7944 42.3728V36.0728H27.6464V42.3728H26.7944ZM27.2264 34.6808C27.0504 34.6808 26.9024 34.6208 26.7824 34.5008C26.6624 34.3808 26.6024 34.2368 26.6024 34.0688C26.6024 33.9008 26.6624 33.7608 26.7824 33.6488C26.9024 33.5288 27.0504 33.4688 27.2264 33.4688C27.4024 33.4688 27.5504 33.5248 27.6704 33.6368C27.7904 33.7488 27.8504 33.8888 27.8504 34.0568C27.8504 34.2328 27.7904 34.3808 27.6704 34.5008C27.5584 34.6208 27.4104 34.6808 27.2264 34.6808ZM32.0091 42.4328C31.4171 42.4328 30.9611 42.2728 30.6411 41.9528C30.3211 41.6328 30.1611 41.1808 30.1611 40.5968V34.6808H31.0131V40.5488C31.0131 40.9168 31.1051 41.2008 31.2891 41.4008C31.4811 41.6008 31.7531 41.7008 32.1051 41.7008C32.4811 41.7008 32.7931 41.5928 33.0411 41.3768L33.3411 41.9888C33.1731 42.1408 32.9691 42.2528 32.7291 42.3248C32.4971 42.3968 32.2571 42.4328 32.0091 42.4328ZM29.0331 36.7808V36.0728H32.9331V36.7808H29.0331ZM38.1081 36.0128C38.6201 36.0128 39.0681 36.1128 39.4521 36.3128C39.8441 36.5048 40.1481 36.8008 40.3641 37.2008C40.5881 37.6008 40.7001 38.1048 40.7001 38.7128V42.3728H39.8481V38.7968C39.8481 38.1328 39.6801 37.6328 39.3441 37.2968C39.0161 36.9528 38.5521 36.7808 37.9521 36.7808C37.5041 36.7808 37.1121 36.8728 36.7761 37.0568C36.4481 37.2328 36.1921 37.4928 36.0081 37.8368C35.8321 38.1728 35.7441 38.5808 35.7441 39.0608V42.3728H34.8921V33.4688H35.7441V37.8008L35.5761 37.4768C35.7761 37.0208 36.0961 36.6648 36.5361 36.4088C36.9761 36.1448 37.5001 36.0128 38.1081 36.0128ZM48.7461 42.4328C48.2101 42.4328 47.7421 42.3328 47.3421 42.1328C46.9421 41.9328 46.6301 41.6328 46.4061 41.2328C46.1901 40.8328 46.0821 40.3328 46.0821 39.7328V36.0728H46.9341V39.6368C46.9341 40.3088 47.0981 40.8168 47.4261 41.1608C47.7621 41.4968 48.2301 41.6648 48.8301 41.6648C49.2701 41.6648 49.6501 41.5768 49.9701 41.4008C50.2981 41.2168 50.5461 40.9528 50.7141 40.6088C50.8901 40.2648 50.9781 39.8528 50.9781 39.3728V36.0728H51.8301V42.3728H51.0141V40.6448L51.1461 40.9568C50.9461 41.4208 50.6341 41.7848 50.2101 42.0488C49.7941 42.3048 49.3061 42.4328 48.7461 42.4328ZM55.8966 42.4328C55.3766 42.4328 54.8846 42.3608 54.4206 42.2168C53.9566 42.0648 53.5926 41.8768 53.3286 41.6528L53.7126 40.9808C53.9686 41.1728 54.2966 41.3408 54.6966 41.4848C55.0966 41.6208 55.5166 41.6888 55.9566 41.6888C56.5566 41.6888 56.9886 41.5968 57.2526 41.4128C57.5166 41.2208 57.6486 40.9688 57.6486 40.6568C57.6486 40.4248 57.5726 40.2448 57.4206 40.1168C57.2766 39.9808 57.0846 39.8808 56.8446 39.8168C56.6046 39.7448 56.3366 39.6848 56.0406 39.6368C55.7446 39.5888 55.4486 39.5328 55.1526 39.4688C54.8646 39.4048 54.6006 39.3128 54.3606 39.1928C54.1206 39.0648 53.9246 38.8928 53.7726 38.6768C53.6286 38.4608 53.5566 38.1728 53.5566 37.8128C53.5566 37.4688 53.6526 37.1608 53.8446 36.8888C54.0366 36.6168 54.3166 36.4048 54.6846 36.2528C55.0606 36.0928 55.5166 36.0128 56.0526 36.0128C56.4606 36.0128 56.8686 36.0688 57.2766 36.1808C57.6846 36.2848 58.0206 36.4248 58.2846 36.6008L57.9126 37.2848C57.6326 37.0928 57.3326 36.9568 57.0126 36.8768C56.6926 36.7888 56.3726 36.7448 56.0526 36.7448C55.4846 36.7448 55.0646 36.8448 54.7926 37.0448C54.5286 37.2368 54.3966 37.4848 54.3966 37.7888C54.3966 38.0288 54.4686 38.2168 54.6126 38.3528C54.7646 38.4888 54.9606 38.5968 55.2006 38.6768C55.4486 38.7488 55.7166 38.8088 56.0046 38.8568C56.3006 38.9048 56.5926 38.9648 56.8806 39.0368C57.1766 39.1008 57.4446 39.1928 57.6846 39.3128C57.9326 39.4248 58.1286 39.5888 58.2726 39.8048C58.4246 40.0128 58.5006 40.2888 58.5006 40.6328C58.5006 41.0008 58.3966 41.3208 58.1886 41.5928C57.9886 41.8568 57.6926 42.0648 57.3006 42.2168C56.9166 42.3608 56.4486 42.4328 55.8966 42.4328Z" fill="#111111"/>
</g>
<defs>
<clipPath id="clip0_527_422">
<rect width="73.712" height="66.6768" fill="white" transform="matrix(-1 0 0 1 74.0898 0.74707)"/>
</clipPath>
</defs>
</svg>
