<svg width="25" height="24" viewBox="0 0 25 24" fill="none" xmlns="http://www.w3.org/2000/svg">
<path d="M4.5 9H20.5L19.665 18.181C19.6198 18.6779 19.3906 19.14 19.0222 19.4766C18.6538 19.8131 18.173 19.9998 17.674 20H7.326C6.82704 19.9998 6.34617 19.8131 5.9778 19.4766C5.60942 19.14 5.38016 18.6779 5.335 18.181L4.5 9Z" stroke="black" stroke-linejoin="round"/>
<path d="M8.5 11V8C8.5 6.93913 8.92143 5.92172 9.67157 5.17157C10.4217 4.42143 11.4391 4 12.5 4C13.5609 4 14.5783 4.42143 15.3284 5.17157C16.0786 5.92172 16.5 6.93913 16.5 8V11" stroke="black" stroke-linecap="round"/>
</svg>
