<svg width="25" height="24" viewBox="0 0 25 24" fill="none" xmlns="http://www.w3.org/2000/svg">
<path d="M15.1441 2.3644C14.6191 2.20959 14.0796 2.10906 13.5341 2.0644C12.3273 1.92164 11.1043 2.01677 9.9341 2.3444L9.8641 2.3644C7.7659 2.94055 5.91508 4.19004 4.5963 5.9207C3.27751 7.65137 2.56381 9.76735 2.56494 11.9432C2.56608 14.1191 3.282 16.2343 4.60259 17.9636C5.92318 19.6929 7.7753 20.9404 9.8741 21.5144C10.6422 21.7319 11.4358 21.8462 12.2341 21.8544C12.3232 21.8704 12.4137 21.8771 12.5041 21.8744C13.3931 21.8755 14.2781 21.7544 15.1341 21.5144C17.2311 20.9385 19.0811 19.6901 20.4 17.9611C21.7189 16.232 22.4338 14.1179 22.4349 11.9432C22.4361 9.76856 21.7234 7.65365 20.4063 5.92323C19.0892 4.1928 17.2405 2.94253 15.1441 2.3644ZM14.8741 3.3244C16.1689 3.68261 17.3664 4.32804 18.3774 5.21272C19.3885 6.0974 20.1872 7.19858 20.7141 8.4344H16.4541C15.945 6.47141 15.0094 4.64475 13.7141 3.0844C14.1062 3.13562 14.4939 3.21584 14.8741 3.3244ZM12.5041 3.2344C13.8697 4.71467 14.8667 6.49628 15.4141 8.4344H9.5741C10.1187 6.49138 11.1237 4.70831 12.5041 3.2364V3.2344ZM15.6641 9.4344C15.9839 11.0891 15.9839 12.7897 15.6641 14.4444H9.3441C9.17495 13.6219 9.09118 12.7841 9.0941 11.9444C9.0919 11.1014 9.17567 10.2604 9.3441 9.4344H15.6641ZM10.0641 3.3444L10.1341 3.3244C10.5153 3.22239 10.9028 3.14555 11.2941 3.0944C9.99064 4.64778 9.05105 6.47299 8.5441 8.4364H4.2991C4.82409 7.21441 5.61339 6.12396 6.61022 5.2435C7.60705 4.36304 8.78663 3.71446 10.0641 3.3444ZM3.5641 11.9444C3.56412 11.0941 3.68878 10.2485 3.9341 9.4344H8.3241C8.17212 10.2625 8.09514 11.1025 8.0941 11.9444C8.09574 12.7829 8.17272 13.6196 8.3241 14.4444H3.9341C3.68833 13.6338 3.56365 12.7914 3.5641 11.9444ZM10.1341 20.5544C8.83802 20.1989 7.63928 19.5544 6.62785 18.6694C5.61641 17.7844 4.81854 16.6818 4.2941 15.4444H8.5341C9.04586 17.4124 9.99242 19.2406 11.3041 20.7944C10.9087 20.7437 10.5176 20.6634 10.1341 20.5544ZM9.5741 15.4444H15.4141C14.8738 17.3884 13.876 19.1749 12.5041 20.6544C11.133 19.1711 10.1294 17.3865 9.5741 15.4444ZM14.8741 20.5544C14.4883 20.6538 14.0978 20.7339 13.7041 20.7944C15.003 19.235 15.942 17.4083 16.4541 15.4444H20.7141C20.1884 16.681 19.3901 17.7829 18.3789 18.6677C17.3676 19.5526 16.1696 20.1975 14.8741 20.5544ZM16.6741 14.4444C16.9844 12.7888 16.9844 11.09 16.6741 9.4344H21.0641C21.3138 10.2475 21.4386 11.0938 21.4341 11.9444C21.4364 12.7908 21.3151 13.633 21.0741 14.4444H16.6741Z" fill="black"/>
</svg>
