<svg width="108" height="21" viewBox="0 0 108 21" fill="none" xmlns="http://www.w3.org/2000/svg">
<g id="Group">
<path id="Vector" d="M14.4378 20.828L9.6042 14.1925C9.06294 14.254 8.52168 14.2786 7.91748 14.2786H2.24056V20.828H0V0.172058H7.91748C13.2923 0.172058 16.565 2.82624 16.565 7.24988C16.565 10.4939 14.8154 12.7671 11.7315 13.7379L16.8923 20.8157H14.4503L14.4378 20.828ZM14.3245 7.24988C14.3245 3.94444 12.0839 2.06439 7.85455 2.06439H2.24056V12.4108H7.85455C12.0839 12.4108 14.3245 10.4939 14.3245 7.24988Z" fill="#111111"/>
<path id="Vector_2" d="M38.0015 18.9357V20.828H23.0476V0.172058H37.5483V2.06439H25.2882V9.41255H36.2266V11.268H25.2882V18.9357H38.0015Z" fill="#111111"/>
<path id="Vector_3" d="M59.2363 10.4939H61.3762V18.3704C59.3873 20.1153 56.5426 21 53.6097 21C47.1776 21 42.4573 16.5518 42.4573 10.5061C42.4573 4.4605 47.1901 0 53.6475 0C56.8447 0 59.6265 1.00761 61.502 2.97367L60.1174 4.3622C58.33 2.65418 56.2153 1.94149 53.7482 1.94149C48.5244 1.94149 44.6852 5.56641 44.6852 10.4939C44.6852 15.4213 48.5244 19.0462 53.723 19.0462C55.7496 19.0462 57.6251 18.6039 59.2489 17.4488V10.4939H59.2363Z" fill="#111111"/>
<path id="Vector_4" d="M83.8577 18.9357V20.828H68.9038V0.172058H83.4045V2.06439H71.1444V9.41255H82.0828V11.268H71.1444V18.9357H83.8577Z" fill="#111111"/>
<path id="Vector_5" d="M108 0.172058V20.8157H106.162L92.568 4.06732V20.8157H90.3274V0.172058H92.1652L105.797 16.9204V0.172058H108Z" fill="#111111"/>
</g>
</svg>
