<svg width="135" height="27" viewBox="0 0 135 27" fill="none" xmlns="http://www.w3.org/2000/svg">
<g id="logotype" clip-path="url(#clip0_28_243)">
<path id="Vector" d="M69.4982 5.37158L66.0367 14.519L65.9895 13.9503L68.743 19.4798L64.9982 14.5822L64.7937 14.3295L64.951 14.0293L69.4982 5.37158Z" fill="#111111"/>
<g id="Group">
<path id="Vector_2" d="M18.0472 26.7788L12.0052 18.2475C11.3287 18.3265 10.6521 18.3581 9.89685 18.3581H2.8007V26.7788H0V0.221191H9.89685C16.6154 0.221191 20.7063 3.63371 20.7063 9.32125C20.7063 13.4921 18.5192 16.4149 14.6643 17.663L21.1154 26.763H18.0629L18.0472 26.7788ZM17.9056 9.32125C17.9056 5.0714 15.1049 2.65419 9.81818 2.65419H2.8007V15.9567H9.81818C15.1049 15.9567 17.9056 13.4921 17.9056 9.32125Z" fill="#111111"/>
<path id="Vector_3" d="M47.5016 24.3458V26.7788H28.8093V0.221191H46.9352V2.65419H31.61V12.1018H45.2831V14.4874H31.61V24.3458H47.5016Z" fill="#111111"/>
<path id="Vector_4" d="M74.0456 13.4921H76.7204V23.6191C74.2344 25.8625 70.6784 27 67.0123 27C58.9721 27 53.0718 21.2809 53.0718 13.5079C53.0718 5.73493 58.9879 0 67.0595 0C71.056 0 74.5333 1.29549 76.8777 3.82329L75.1469 5.60854C72.9127 3.41252 70.2693 2.4962 67.1854 2.4962C60.6557 2.4962 55.8567 7.15682 55.8567 13.4921C55.8567 19.8274 60.6557 24.488 67.1539 24.488C69.6872 24.488 72.0316 23.9193 74.0613 22.4342V13.4921H74.0456Z" fill="#111111"/>
<path id="Vector_5" d="M104.822 24.3458V26.7788H86.1294V0.221191H104.255V2.65419H88.9301V12.1018H102.603V14.4874H88.9301V24.3458H104.822Z" fill="#111111"/>
<path id="Vector_6" d="M135 0.221191V26.763H132.703L115.71 5.22938V26.763H112.909V0.221191H115.206L132.247 21.7548V0.221191H135Z" fill="#111111"/>
</g>
</g>
<defs>
<clipPath id="clip0_28_243">
<rect width="135" height="27" fill="white"/>
</clipPath>
</defs>
</svg>
