<svg width="17" height="18" viewBox="0 0 17 18" fill="none" xmlns="http://www.w3.org/2000/svg">
<path d="M16.5 17L12.6396 13.1396M12.6396 13.1396C13.2999 12.4793 13.8237 11.6953 14.1811 10.8326C14.5385 9.96978 14.7224 9.04507 14.7224 8.11121C14.7224 7.17735 14.5385 6.25264 14.1811 5.38987C13.8237 4.5271 13.2999 3.74316 12.6396 3.08283C11.9793 2.42249 11.1953 1.89868 10.3326 1.54131C9.46978 1.18394 8.54507 1 7.61121 1C6.67735 1 5.75264 1.18394 4.88987 1.54131C4.0271 1.89868 3.24316 2.42249 2.58283 3.08283C1.24921 4.41644 0.5 6.2252 0.5 8.11121C0.5 9.99722 1.24921 11.806 2.58283 13.1396C3.91644 14.4732 5.7252 15.2224 7.61121 15.2224C9.49722 15.2224 11.306 14.4732 12.6396 13.1396Z" stroke="black" stroke-linecap="round" stroke-linejoin="round"/>
</svg>
